<svg width="62" height="54" viewBox="0 0 62 54" fill="none" xmlns="http://www.w3.org/2000/svg">
<g id="Group 427319740">
<path id="Vector" d="M34.3047 50.0098C31.3912 49.7259 28.48 49.414 25.5595 49.1766C24.7541 49.1115 24.2363 48.7856 23.7979 48.1293C22.1869 45.7135 20.538 43.3197 18.9029 40.9144C18.7492 40.6575 18.5765 40.4128 18.3862 40.1824C17.1631 38.8709 16.2402 39.0187 15.4934 40.6176C15.3308 40.9668 15.1678 41.3159 15.0044 41.665C14.1195 42.0525 13.5085 41.8395 13.2381 40.8504C14.4567 38.1506 14.4601 38.1448 11.8285 36.7449C8.13831 34.7817 4.54244 32.6568 0.992607 30.4434C-0.0568102 29.7883 -0.255877 29.1226 0.309105 28.009C1.78772 25.0997 2.9361 22.0462 4.06031 18.981C4.35143 18.1862 4.23176 17.8301 3.40327 17.6439C2.57478 17.4577 1.78082 17.1168 0.952332 16.9352C-0.152317 16.6932 -0.156921 16.1625 0.318309 15.2816C1.77506 12.5853 3.8693 10.7001 6.81963 9.84482C8.20965 9.44218 9.59046 9.00113 10.9966 8.66948C11.7526 8.49143 11.7595 8.204 11.412 7.63262C11.0357 7.01005 10.7216 6.35256 10.3764 5.70787C10.5214 4.93983 11.0288 4.64192 11.7572 4.62563C11.7894 4.65392 11.8194 4.68465 11.8469 4.71756C12.5719 5.70787 12.8147 7.36148 13.9043 7.66754C14.8951 7.94682 16.1758 7.20206 17.3207 6.8832C20.683 5.9441 24.0464 5.00499 27.3995 4.03214C27.7213 3.92714 28.0611 3.8903 28.3977 3.92394C28.7342 3.95757 29.0603 4.06096 29.3556 4.22765C38.7912 9.20051 48.2267 14.1633 57.6623 19.116C60.7783 20.758 62.5216 24.4865 61.8611 27.9415C61.6482 29.0586 61.1396 29.3856 60.0442 29.04C58.4194 28.5268 56.7935 28.0125 55.1929 27.4306C54.5267 27.1874 54.1573 27.2072 53.7856 27.9194C53.101 29.2541 52.2898 30.5226 51.5395 31.8213C51.3358 32.1704 50.9515 32.5195 51.4325 32.9384C51.6845 33.7681 51.5913 34.4291 50.6144 34.6607C50.0724 34.0393 49.8089 34.4838 49.5086 34.933C47.6065 37.7433 45.5215 40.4128 43.395 43.0509C42.8266 43.7561 42.2282 44.0494 41.3238 43.9912C36.0928 43.6514 30.8596 43.3411 25.624 43.0602C24.4733 42.9986 23.5919 42.2457 22.287 41.9571C23.3928 43.5699 24.3916 45.0315 25.3939 46.4873C25.7529 47.0075 26.3144 47.0215 26.8713 47.1041C29.3971 47.4823 31.9585 47.6161 34.4554 48.198C35.2793 49.25 35.2471 49.6363 34.3047 50.0098Z" fill="#686868"/>
<path id="Vector_2" d="M13.2409 40.8544C13.7403 41.3198 14.3133 41.6305 15.0083 41.669C14.5929 42.2066 14.5918 42.9711 14.0533 43.4401C12.4607 43.2353 10.9165 42.7908 9.34583 42.4731C9.11553 42.4378 8.89511 42.354 8.69887 42.2271C8.50262 42.1003 8.33493 41.9331 8.20666 41.7364C8.14798 40.0468 9.73131 39.0995 11.3641 39.8338C12.0177 40.1247 12.5033 40.7229 13.2409 40.8544Z" fill="#FAB775"/>
<path id="Vector_3" d="M34.3066 50.0094C35.3342 49.4904 34.3458 48.8003 34.4574 48.2034C35.0684 48.1871 35.6944 48.0148 36.2697 48.3814C36.9866 49.5381 37.7138 50.6902 38.4019 51.8725C38.6677 52.3252 38.8622 52.7767 38.8161 53.3097C37.1672 54.6561 35.417 53.9683 35.0454 51.8085C34.9315 51.1382 35.0166 50.4132 34.3066 50.0094Z" fill="#FAB775"/>
<path id="Vector_4" d="M51.375 39.2887C50.886 38.6824 51.7846 38.0342 51.3106 37.414C50.9147 37.4489 50.94 37.9318 50.6443 38.0703C50.2623 37.5618 50.2611 37.023 50.6294 36.5342C51.123 35.8837 50.9987 35.2833 50.6098 34.6642C50.9734 34.1347 51.5948 33.7332 51.4279 32.9419L52.6937 34.6874C53.1378 34.862 53.3081 35.2402 53.4071 35.6708C54.0285 37.9237 53.6764 38.5323 51.4636 39.0525C51.4222 39.0688 51.4049 39.2084 51.375 39.2887Z" fill="#F9B776"/>
<path id="Vector_5" d="M11.5034 0.314674C11.5977 1.30964 11.4688 2.12073 10.1904 2.09979C9.61509 2.09048 9.48622 2.78404 9.04551 3.00863C8.5139 2.11142 8.61976 1.23051 9.30902 0.507849C9.97986 -0.19037 10.7324 -0.0821466 11.5034 0.314674Z" fill="#F8B778"/>
<path id="Vector_6" d="M9.71875 4.88981C10.561 3.60974 11.3815 2.52285 12.2238 1.24744C12.9142 1.94566 12.6208 2.43557 12.0512 2.97669C11.5276 3.47359 11.2722 3.97049 11.7531 4.63031L10.3723 5.71254C10.095 5.5089 10.1272 4.98058 9.71875 4.88981Z" fill="#F8B778"/>
<path id="Vector_7" d="M45.4581 51.8158L40.043 51.3923C42.1694 50.2902 44.2119 51.1188 46.2716 51.5214C46.1887 52.1487 45.7653 51.8089 45.4581 51.8158Z" fill="#686868"/>
<path id="Vector_8" d="M11.5918 43.7692C13.663 45.5717 15.8435 46.2548 18.4199 46.7354C15.0438 47.1101 12.7022 46.1373 11.5918 43.7692Z" fill="#686868"/>
<path id="Vector_9" d="M38.814 53.3032C38.081 52.0231 37.3262 50.7652 36.6277 49.4711C36.4528 49.1464 35.958 48.8893 36.2676 48.3807C37.5932 49.3268 38.1604 50.8513 39.043 52.1337C39.3111 52.5223 39.1224 52.9576 38.814 53.3032Z" fill="#DA853D"/>
<path id="Vector_10" d="M8.20744 41.7344C9.68375 42.3674 11.2866 42.5152 12.8101 42.9632C13.2324 43.0878 13.7479 42.9958 14.054 43.4392C12.16 43.7883 10.4409 42.9737 8.66541 42.5699C8.34552 42.5001 8.18327 42.1149 8.20744 41.7344Z" fill="#DA853D"/>
<path id="Vector_11" d="M38.482 48.9144C40.078 48.2906 41.5071 49.0482 42.957 49.651L38.4785 49.2553L38.482 48.9144Z" fill="#686868"/>
<path id="Vector_12" d="M45.459 51.8158C45.7259 51.705 46.0804 51.8426 46.2725 51.5208L47.5992 51.7855C46.8663 52.0257 46.1574 52.1085 45.459 51.8158Z" fill="#5A5A5A"/>
<path id="Vector_13" d="M41.1298 26.121C40.2426 26.0116 39.3543 25.922 38.4717 25.787C37.8964 25.6986 37.4062 25.787 37.237 26.3956C37.0322 27.1311 37.5017 27.6047 38.115 27.7374C39.528 28.0422 40.9652 28.2331 42.392 28.467C42.6006 28.5133 42.8137 28.5352 43.0272 28.5322C45.7819 28.3262 47.2099 30.1613 48.562 32.1524C48.8738 32.6179 48.7749 32.9007 48.5114 33.2917C46.7191 35.9694 44.7247 38.5029 42.5462 40.8697C42.201 41.2397 41.9283 41.512 41.3783 41.1245C36.8331 37.9232 32.0693 35.0733 27.3504 32.1419C26.0847 31.0318 24.5888 30.2428 23.208 29.2897C21.1368 27.856 21.1195 27.8735 22.0228 25.5659C22.116 25.3332 22.2529 25.1074 22.2207 24.8374C24.9328 19.2901 27.1099 13.5379 28.6069 7.53439C28.844 6.58365 29.1765 6.65115 29.7576 7.20041C29.9728 7.40522 30.211 7.58676 30.4388 7.78226C32.6642 9.65698 33.5457 12.2288 34.0519 14.9774C34.3684 16.7125 34.5387 18.4685 34.2061 20.2303C34.0209 21.2125 34.5939 21.7606 35.32 22.2016C36.8872 23.1547 38.5108 24.0089 40.0562 24.9945C40.4877 25.2761 41.1056 25.4204 41.1298 26.121Z" fill="#F39B27"/>
<path id="Vector_14" d="M24.2221 15.0189C22.8101 19.217 21.0411 23.2834 18.9348 27.1726C18.6632 27.6741 18.3376 27.9546 17.753 27.9872C16.7773 28.0465 15.8038 28.1676 14.8292 28.2618C11.9847 28.3689 9.13792 28.5807 6.31991 27.9465C4.54787 27.5485 3.78152 26.4336 4.01856 24.5822C5.41663 20.4743 6.78018 16.3583 7.73409 12.1143C7.8388 11.6489 7.99299 11.2567 8.57639 11.1264C10.2334 10.754 11.8742 10.3118 13.5243 9.8975C15.5541 9.74971 17.4677 9.04334 19.4422 8.63256C20.9749 8.3137 22.4973 7.93434 24.0357 7.65738C25.3774 7.41184 25.7502 7.81797 25.5374 9.17019C25.2255 11.152 24.5443 13.0441 24.2221 15.0189Z" fill="#F39B27"/>
<path id="Vector_15" d="M58.8324 26.3493L45.7596 22.3241C44.4939 21.5665 43.0601 21.2605 41.6954 20.7694C40.6598 20.397 40.0177 19.878 39.829 18.6433C39.6265 17.3202 39.2859 15.9761 38.5932 14.7822C37.9028 13.3357 37.3159 11.8357 36.5059 10.3206L50.1494 17.3027C51.8881 18.6061 53.8753 19.4637 55.7728 20.475C57.485 21.3873 58.6909 22.6732 59.2064 24.5479C59.3733 25.16 59.692 25.9106 58.8324 26.3493Z" fill="#F39B27"/>
<path id="Vector_16" d="M41.1291 26.1228C39.1258 24.9207 37.1386 23.6895 35.1122 22.5269C34.003 21.8916 33.7314 21.1177 33.8661 19.7876C34.2561 15.8962 33.5749 12.1933 31.2069 8.95239C30.9318 8.57536 30.6902 8.17388 30.4336 7.7887C32.7349 9.22819 34.3137 11.3519 35.6818 13.6281C36.9936 15.8112 37.9003 18.1794 38.0925 20.7558C38.1765 21.8904 38.9785 22.0975 39.7932 22.3675C43.5904 23.622 47.3623 24.9346 51.1849 26.1018C52.4506 26.487 52.4587 26.9734 51.8281 27.9137C51.3287 28.6596 50.8788 29.4416 50.4473 30.2306C50.1539 30.7659 49.8869 30.8241 49.5429 30.3016C49.5145 30.2692 49.4898 30.2337 49.4692 30.1957C48.2242 27.0258 45.5477 26.5114 42.6342 26.4055C42.1268 26.3823 41.6251 26.2193 41.1291 26.1228Z" fill="#DA853D"/>
<path id="Vector_17" d="M37.4287 41.4051C33.2229 41.5564 29.3613 41.1363 25.4915 41.0746C24.6182 41.0606 23.7437 40.4532 22.8899 40.075C21.2133 39.3349 19.5598 38.5389 17.8752 37.8174C17.2159 37.5346 17.1192 37.2065 17.3804 36.549C18.1203 34.6929 18.2296 34.6196 20.31 34.9093C23.0855 35.2968 25.8667 35.6448 28.6432 36.0311C29.4855 36.1475 30.2795 36.3802 31.0102 36.8992C33.0584 38.3422 35.2182 39.6258 37.4287 41.4051Z" fill="#F39B27"/>
<path id="Vector_18" d="M4.30273 30.0767C6.4476 30.1756 8.60166 30.1779 10.7339 30.4002C13.0433 30.6399 15.309 30.2733 17.5896 30.1407C18.3767 30.0941 19.0751 30.0592 19.7931 30.4618C21.4582 31.3928 23.1554 32.2656 24.7744 33.3199C22.6917 33.0569 20.5963 32.8649 18.5308 32.5053C17.4561 32.3168 16.8048 32.6217 16.371 33.5712C16.1236 34.1182 15.7784 34.6418 15.6473 35.2167C15.3734 36.42 14.7267 36.3327 13.8844 35.8777C10.6245 34.1217 7.33362 32.4122 4.30273 30.0767Z" fill="#F39B27"/>
<path id="Vector_19" d="M24.2221 15.0182C24.1703 13.0946 24.8055 11.2793 25.1046 9.41153C25.367 7.78235 25.4499 7.76141 23.901 8.06397C20.8333 8.66444 17.7714 9.29749 14.7094 9.92588C14.3032 10.0097 13.912 10.275 13.5254 9.8933L26.7582 6.44177C26.0847 9.34971 25.2378 12.2138 24.2221 15.0182Z" fill="#FFB96F"/>
<path id="Vector_20" d="M58.8308 26.3504C59.3497 24.8062 58.4683 22.5591 56.7941 21.5292C54.8379 20.3248 52.8012 19.253 50.8198 18.0893C50.5425 17.9264 49.8992 17.973 50.1478 17.3062C52.4273 18.4442 54.7206 19.5544 56.9794 20.7321C58.5063 21.528 59.9631 24.4559 59.7571 26.0851C59.6478 26.9544 59.1599 26.3399 58.8308 26.3504Z" fill="#FFB96F"/>
<path id="Vector_21" d="M4.02207 24.5841C4.2522 26.5077 4.91039 27.2141 6.77564 27.754C8.97113 28.3894 11.2103 28.2032 13.4404 28.23C13.9006 28.23 14.3666 28.2521 14.8304 28.2637C12.2529 28.7443 9.65808 28.4837 7.07826 28.3685C5.93334 28.3161 4.78381 28.2521 3.63774 28.2288C2.84723 28.2114 2.65276 27.946 2.97955 27.2071C3.36043 26.3471 3.67801 25.4592 4.02207 24.5841Z" fill="#FFB96F"/>
<path id="Vector_22" d="M22.2194 24.8414C22.69 25.4559 22.0664 25.8573 21.8961 26.3193C21.5647 27.2154 21.5428 27.8449 22.5059 28.4314C24.0524 29.3729 25.4977 30.4865 26.9809 31.535C27.1823 31.677 27.6368 31.6875 27.3457 32.1413C25.2745 30.9881 23.2159 29.8139 21.132 28.6956C20.5256 28.3709 20.4819 28.0753 20.8121 27.5144C21.3161 26.6475 21.7522 25.7352 22.2194 24.8414Z" fill="#FFB96F"/>
<path id="Vector_23" d="M2.38672 15.3904C3.0403 14.0405 4.27038 13.3562 5.4222 12.5975C5.53727 12.523 5.72483 12.5661 5.88247 12.5533C5.89237 12.7148 5.88659 12.877 5.86522 13.0374C5.81113 13.2852 5.71102 13.5238 5.64428 13.7693C4.97459 16.2224 4.97574 16.2224 2.38672 15.3904Z" fill="#F39B27"/>
<path id="Vector_24" d="M38.5898 14.782C39.6174 15.8468 39.7658 17.3014 40.0719 18.6222C40.3021 19.616 40.7623 20.0954 41.6104 20.4096C42.9912 20.924 44.3628 21.4639 45.7528 21.9713C46.144 22.1156 46.1705 22.1959 45.762 22.3204C44.0199 21.8002 42.2824 21.2638 40.5333 20.7704C40.0455 20.6331 39.8959 20.3596 39.7946 19.8848C39.4229 18.1777 38.9937 16.4833 38.5898 14.782Z" fill="#FFB96F"/>
<path id="Vector_25" d="M9.51367 20.707C12.4295 21.7217 15.0369 21.1445 17.5063 19.4677C17.2991 21.7229 13.7654 24.3657 11.6827 23.9258C11.3317 23.8525 11.1166 23.6767 11.0924 23.3614C11.0038 22.2373 10.4917 21.3773 9.51367 20.707Z" fill="#686868"/>
<path id="Vector_26" d="M20.845 17.2392C18.3284 15.7159 17.8877 15.7264 15.3125 17.3381C15.4276 15.6403 17.0592 14.0798 18.6057 14.1891C20.0775 14.2939 21.0279 15.5402 20.845 17.2392Z" fill="#686868"/>
<path id="Vector_27" d="M10.8695 17.4799C9.86615 16.1999 8.88233 15.7216 7.5625 16.6339C7.85592 15.703 8.12633 14.7639 9.34145 14.7883C10.3046 14.8034 10.9018 15.7891 10.8695 17.4799Z" fill="#686868"/>
<path id="Vector_28" d="M9.04688 2.94078C9.04688 2.94078 9.11706 4.52225 9.7787 4.94351C10.4403 5.36477 12.2895 1.67002 12.2895 1.67002C12.2895 1.67002 12.2239 -0.0091911 10.9282 0.327118" fill="#F8B778"/>
<path id="Vector_29" d="M45.4453 1.18566L40.4434 3.41675L42.6495 8.47531L47.6514 6.24422L45.4453 1.18566Z" fill="url(#paint0_linear_4851_25512)"/>
<path id="Vector_30" d="M49.8965 2.93407L44.8945 5.16516L47.1007 10.2237L52.1026 7.99263L49.8965 2.93407Z" fill="url(#paint1_linear_4851_25512)"/>
</g>
<defs>
<linearGradient id="paint0_linear_4851_25512" x1="41.9679" y1="3.48079" x2="47.9116" y2="7.25089" gradientUnits="userSpaceOnUse">
<stop stop-color="#EDA243"/>
<stop offset="0.67" stop-color="#DB7F0F"/>
</linearGradient>
<linearGradient id="paint1_linear_4851_25512" x1="46.4175" y1="5.22861" x2="52.3612" y2="8.99871" gradientUnits="userSpaceOnUse">
<stop stop-color="#EDA243"/>
<stop offset="1" stop-color="#DB7F0F"/>
</linearGradient>
</defs>
</svg>
